<svg viewBox="0 0 1200 700" xmlns="http://www.w3.org/2000/svg" style="font-family:system-ui,-apple-system,sans-serif">
<defs>
  <radialGradient id="fsbg" cx="68%" cy="48%" r="72%">
    <stop offset="0%" stop-color="#0c2230"/>
    <stop offset="55%" stop-color="#061018"/>
    <stop offset="100%" stop-color="#030810"/>
  </radialGradient>
  <radialGradient id="fsglow" cx="50%" cy="50%" r="50%">
    <stop offset="0%" stop-color="#0E9C8E" stop-opacity=".28"/>
    <stop offset="100%" stop-color="#0E9C8E" stop-opacity="0"/>
  </radialGradient>
  <radialGradient id="fsring" cx="35%" cy="35%" r="65%">
    <stop offset="0%" stop-color="#0E9C8E"/>
    <stop offset="100%" stop-color="#047a70"/>
  </radialGradient>
  <linearGradient id="fsscreen" x1="0%" y1="0%" x2="0%" y2="100%">
    <stop offset="0%" stop-color="#0e2030"/>
    <stop offset="100%" stop-color="#071520"/>
  </linearGradient>
  <linearGradient id="fsbadge" x1="0%" y1="0%" x2="100%" y2="100%">
    <stop offset="0%" stop-color="#0E9C8E"/>
    <stop offset="100%" stop-color="#0a7870"/>
  </linearGradient>
  <linearGradient id="fscard" x1="0%" y1="0%" x2="0%" y2="100%">
    <stop offset="0%" stop-color="#142838"/>
    <stop offset="100%" stop-color="#0d1e2c"/>
  </linearGradient>
  <pattern id="fsdots" x="0" y="0" width="28" height="28" patternUnits="userSpaceOnUse">
    <circle cx="14" cy="14" r="1" fill="#0E9C8E" fill-opacity=".1"/>
  </pattern>
  <clipPath id="fsclip1"><rect width="256" height="520" rx="36"/></clipPath>
  <clipPath id="fsclip2"><rect width="228" height="468" rx="32"/></clipPath>
  <filter id="fsdrop"><feDropShadow dx="0" dy="24" stdDeviation="32" flood-color="#000" flood-opacity=".75"/></filter>
  <filter id="fsgf" x="-60%" y="-60%" width="220%" height="220%"><feGaussianBlur stdDeviation="50"/></filter>
</defs>

<!-- BG -->
<rect width="1200" height="700" fill="url(#fsbg)"/>
<rect width="1200" height="700" fill="url(#fsdots)"/>

<!-- Glow behind phones -->
<ellipse cx="780" cy="360" rx="300" ry="220" fill="#0E9C8E" fill-opacity=".18" filter="url(#fsgf)"/>

<!-- ─── LEFT TEXT PANEL ─── -->
<!-- Eyebrow tags -->
<rect x="64" y="76" width="78" height="24" rx="12" fill="#0E9C8E" fill-opacity=".15"/>
<text x="103" y="92" text-anchor="middle" font-size="10" font-weight="700" fill="#0E9C8E" letter-spacing=".08em">MOBILE</text>
<rect x="152" y="76" width="52" height="24" rx="12" fill="#0E9C8E" fill-opacity=".15"/>
<text x="178" y="92" text-anchor="middle" font-size="10" font-weight="700" fill="#0E9C8E" letter-spacing=".08em">iOS</text>
<rect x="214" y="76" width="120" height="24" rx="12" fill="#4F46E5" fill-opacity=".18"/>
<text x="274" y="92" text-anchor="middle" font-size="10" font-weight="700" fill="#818cf8" letter-spacing=".08em">UX RESEARCH</text>

<!-- Title -->
<text x="64" y="200" font-size="100" font-weight="800" fill="#e8f4f2" letter-spacing="-.05em">Flexi</text>
<text x="64" y="300" font-size="100" font-weight="800" fill="#0E9C8E" letter-spacing="-.05em">Space</text>

<!-- Subtitle -->
<text x="66" y="340" font-size="17" fill="#4a7a80" font-weight="400">Workplace experience for hybrid teams</text>

<!-- Divider -->
<rect x="64" y="365" width="260" height="1" fill="#0E9C8E" fill-opacity=".25"/>

<!-- Metrics -->
<text x="64" y="404" font-size="36" font-weight="800" fill="#e8f4f2">4.8</text>
<text x="64" y="424" font-size="11" fill="#4a7a80" letter-spacing=".04em">USER RATING</text>
<text x="184" y="404" font-size="36" font-weight="800" fill="#e8f4f2">60%</text>
<text x="184" y="424" font-size="11" fill="#4a7a80" letter-spacing=".04em">LESS DROP-OFF</text>
<text x="316" y="404" font-size="36" font-weight="800" fill="#0E9C8E">3×</text>
<text x="316" y="424" font-size="11" fill="#4a7a80" letter-spacing=".04em">FASTER BOOKING</text>

<!-- Bottom label -->
<text x="64" y="620" font-size="12" fill="#2a5060" font-weight="500" letter-spacing=".12em">CASE STUDY · UI/UX DESIGN</text>

<!-- ─── SECONDARY PHONE (back) ─── -->
<g transform="translate(836,96) rotate(-5,114,234)" filter="url(#fsdrop)" opacity=".8">
  <rect width="228" height="468" rx="32" fill="#0a1c2a" stroke="#1a3448" stroke-width="1.5"/>
  <g clip-path="url(#fsclip2)">
    <rect width="228" height="468" fill="url(#fsscreen)"/>
    <!-- Status -->
    <rect width="228" height="38" fill="#08131e" fill-opacity=".9"/>
    <text x="18" y="25" font-size="11" font-weight="600" fill="#c8d8e0">9:41</text>
    <rect x="80" y="7" width="68" height="20" rx="10" fill="#000"/>
    <!-- Screen title -->
    <text x="18" y="57" font-size="13" font-weight="700" fill="#e0eef4">Floor 4 · East Wing</text>
    <text x="18" y="73" font-size="10" fill="#4a7a80">28 available · 19 occupied</text>
    <!-- Floor grid -->
    <g transform="translate(16,85)" fill-opacity=".9">
      <!-- Row 1 -->
      <circle cx="14" cy="14" r="8" fill="#0E9C8E" fill-opacity=".35"/>
      <circle cx="38" cy="14" r="8" fill="#0E9C8E" fill-opacity=".35"/>
      <circle cx="62" cy="14" r="8" fill="#ef5555" fill-opacity=".45"/>
      <circle cx="86" cy="14" r="8" fill="#0E9C8E" fill-opacity=".35"/>
      <circle cx="110" cy="14" r="8" fill="#0E9C8E" fill-opacity=".35"/>
      <circle cx="134" cy="14" r="8" fill="#ef5555" fill-opacity=".45"/>
      <circle cx="158" cy="14" r="8" fill="#0E9C8E" fill-opacity=".35"/>
      <circle cx="182" cy="14" r="8" fill="#0E9C8E" fill-opacity=".35"/>
      <!-- Row 2 -->
      <circle cx="14" cy="40" r="8" fill="#ef5555" fill-opacity=".45"/>
      <circle cx="38" cy="40" r="8" fill="#0E9C8E" fill-opacity=".35"/>
      <circle cx="62" cy="40" r="8" fill="#0E9C8E" fill-opacity=".35"/>
      <circle cx="86" cy="40" r="8" fill="#0E9C8E" fill-opacity=".35"/>
      <circle cx="110" cy="40" r="8" fill="#ef5555" fill-opacity=".45"/>
      <circle cx="134" cy="40" r="8" fill="#0E9C8E" fill-opacity=".35" stroke="#0E9C8E" stroke-width="2.5"/>
      <circle cx="158" cy="40" r="8" fill="#ef5555" fill-opacity=".45"/>
      <circle cx="182" cy="40" r="8" fill="#0E9C8E" fill-opacity=".35"/>
      <!-- Row 3 -->
      <circle cx="14" cy="66" r="8" fill="#0E9C8E" fill-opacity=".35"/>
      <circle cx="38" cy="66" r="8" fill="#ef5555" fill-opacity=".45"/>
      <circle cx="62" cy="66" r="8" fill="#0E9C8E" fill-opacity=".35"/>
      <circle cx="86" cy="66" r="8" fill="#0E9C8E" fill-opacity=".35"/>
      <circle cx="110" cy="66" r="8" fill="#0E9C8E" fill-opacity=".35"/>
      <circle cx="134" cy="66" r="8" fill="#0E9C8E" fill-opacity=".35"/>
      <circle cx="158" cy="66" r="8" fill="#ef5555" fill-opacity=".45"/>
      <circle cx="182" cy="66" r="8" fill="#0E9C8E" fill-opacity=".35"/>
      <!-- Row 4 -->
      <circle cx="14" cy="92" r="8" fill="#0E9C8E" fill-opacity=".35"/>
      <circle cx="38" cy="92" r="8" fill="#0E9C8E" fill-opacity=".35"/>
      <circle cx="62" cy="92" r="8" fill="#ef5555" fill-opacity=".45"/>
      <circle cx="86" cy="92" r="8" fill="#0E9C8E" fill-opacity=".35"/>
      <circle cx="110" cy="92" r="8" fill="#0E9C8E" fill-opacity=".35"/>
      <circle cx="134" cy="92" r="8" fill="#ef5555" fill-opacity=".45"/>
      <circle cx="158" cy="92" r="8" fill="#0E9C8E" fill-opacity=".35"/>
      <circle cx="182" cy="92" r="8" fill="#0E9C8E" fill-opacity=".35"/>
    </g>
    <!-- Legend -->
    <circle cx="24" cy="205" r="6" fill="#0E9C8E" fill-opacity=".4"/>
    <text x="34" y="209" font-size="9" fill="#4a7a80">Available</text>
    <circle cx="90" cy="205" r="6" fill="#ef5555" fill-opacity=".5"/>
    <text x="100" y="209" font-size="9" fill="#4a7a80">Occupied</text>
    <!-- Bottom booking sheet -->
    <rect x="0" y="268" width="228" height="200" rx="20" fill="#0c1e2e" stroke="#1a3448" stroke-width="1"/>
    <rect x="89" y="278" width="50" height="4" rx="2" fill="#1e3448"/>
    <text x="18" y="310" font-size="12" font-weight="700" fill="#e0eef4">Confirm booking</text>
    <text x="18" y="328" font-size="10" fill="#4a7a80">Desk 4C · Floor 4 · East Wing</text>
    <rect x="14" y="338" width="200" height="52" rx="10" fill="#111e2c"/>
    <text x="26" y="358" font-size="9" fill="#4a7a80" letter-spacing=".05em">DATE &amp; TIME</text>
    <text x="26" y="374" font-size="11" font-weight="600" fill="#e0eef4">Mon, 9 Jun · 9am – 6pm</text>
    <rect x="14" y="400" width="200" height="42" rx="11" fill="url(#fsbadge)"/>
    <text x="114" y="426" text-anchor="middle" font-size="13" font-weight="700" fill="#fff">Book desk</text>
  </g>
  <rect x="80" y="7" width="68" height="20" rx="10" fill="#000"/>
</g>

<!-- ─── MAIN PHONE (front) ─── -->
<g transform="translate(546,44) rotate(4,128,260)" filter="url(#fsdrop)">
  <rect x="-2" y="-2" width="260" height="524" rx="38" fill="#1a3040"/>
  <rect width="256" height="520" rx="36" fill="#0c1c2c"/>
  <g clip-path="url(#fsclip1)">
    <rect width="256" height="520" fill="url(#fsscreen)"/>
    <!-- Status -->
    <rect width="256" height="40" fill="#08131e" fill-opacity=".95"/>
    <text x="20" y="27" font-size="12" font-weight="600" fill="#c8d8e0">9:41</text>
    <rect x="88" y="7" width="80" height="24" rx="12" fill="#000"/>
    <!-- Greeting -->
    <text x="20" y="63" font-size="11" font-weight="700" fill="#0E9C8E" letter-spacing=".08em">GOOD MORNING</text>
    <text x="20" y="84" font-size="20" font-weight="700" fill="#e0eef4">Priya 👋</text>
    <!-- Occupancy ring widget -->
    <circle cx="128" cy="152" r="56" fill="none" stroke="#0e2030" stroke-width="10"/>
    <circle cx="128" cy="152" r="56" fill="none" stroke="#0E9C8E" stroke-width="10"
            stroke-dasharray="248 106" stroke-dashoffset="62" stroke-linecap="round"/>
    <circle cx="128" cy="152" r="40" fill="#0c1c2c"/>
    <text x="128" y="146" text-anchor="middle" font-size="26" font-weight="800" fill="#e0eef4">70%</text>
    <text x="128" y="165" text-anchor="middle" font-size="9" fill="#4a7a80">OCCUPIED</text>
    <circle cx="174" cy="102" r="5" fill="#0E9C8E"/>
    <text x="128" y="222" text-anchor="middle" font-size="10" fill="#4a7a80">47 / 80 desks · Floor 4</text>
    <!-- Quick actions -->
    <rect x="14" y="234" width="68" height="68" rx="16" fill="#0E9C8E" fill-opacity=".14"/>
    <text x="48" y="262" text-anchor="middle" font-size="22">🪑</text>
    <text x="48" y="280" text-anchor="middle" font-size="10" fill="#0E9C8E" font-weight="600">Book</text>
    <text x="48" y="293" text-anchor="middle" font-size="9" fill="#4a7a80">Desk</text>
    <rect x="94" y="234" width="68" height="68" rx="16" fill="#4F46E5" fill-opacity=".14"/>
    <text x="128" y="262" text-anchor="middle" font-size="22">👥</text>
    <text x="128" y="280" text-anchor="middle" font-size="10" fill="#818cf8" font-weight="600">Team</text>
    <text x="128" y="293" text-anchor="middle" font-size="9" fill="#4a7a80">Status</text>
    <rect x="174" y="234" width="68" height="68" rx="16" fill="#f59e0b" fill-opacity=".12"/>
    <text x="208" y="262" text-anchor="middle" font-size="22">🏠</text>
    <text x="208" y="280" text-anchor="middle" font-size="10" fill="#fbbf24" font-weight="600">Rooms</text>
    <text x="208" y="293" text-anchor="middle" font-size="9" fill="#4a7a80">Find one</text>
    <!-- Booking card -->
    <text x="14" y="322" font-size="9" fill="#4a7a80" font-weight="700" letter-spacing=".07em">TODAY'S BOOKING</text>
    <rect x="14" y="330" width="228" height="64" rx="14" fill="url(#fscard)"/>
    <rect x="24" y="342" width="4" height="40" rx="2" fill="#0E9C8E"/>
    <text x="38" y="357" font-size="12" font-weight="700" fill="#e0eef4">Desk 3F · Floor 4</text>
    <text x="38" y="373" font-size="10" fill="#4a7a80">9:00 – 18:00 · East Wing</text>
    <text x="38" y="388" font-size="10" fill="#0E9C8E" font-weight="600">● Active now</text>
    <!-- In office today -->
    <text x="14" y="416" font-size="9" fill="#4a7a80" font-weight="700" letter-spacing=".07em">IN OFFICE TODAY</text>
    <circle cx="30" cy="434" r="13" fill="#4F46E5"/><text x="30" y="438" text-anchor="middle" font-size="11" fill="#fff" font-weight="700">A</text>
    <circle cx="58" cy="434" r="13" fill="#0E9C8E"/><text x="58" y="438" text-anchor="middle" font-size="11" fill="#fff" font-weight="700">S</text>
    <circle cx="86" cy="434" r="13" fill="#f59e0b"/><text x="86" y="438" text-anchor="middle" font-size="11" fill="#fff" font-weight="700">R</text>
    <circle cx="114" cy="434" r="13" fill="#ef5555"/><text x="114" y="438" text-anchor="middle" font-size="11" fill="#fff" font-weight="700">M</text>
    <rect x="132" y="421" width="38" height="26" rx="13" fill="#0e2030"/>
    <text x="151" y="438" text-anchor="middle" font-size="10" fill="#4a7a80" font-weight="600">+8</text>
    <!-- Tab bar -->
    <rect x="0" y="474" width="256" height="46" fill="#08131e"/>
    <line x1="0" y1="474" x2="256" y2="474" stroke="#1a3040" stroke-width="1"/>
    <text x="26" y="502" text-anchor="middle" font-size="18">🏠</text>
    <circle cx="26" cy="510" r="3" fill="#0E9C8E"/>
    <text x="77" y="502" text-anchor="middle" font-size="18">📍</text>
    <text x="128" y="498" text-anchor="middle" font-size="24">⊕</text>
    <text x="179" y="502" text-anchor="middle" font-size="18">📅</text>
    <text x="230" y="502" text-anchor="middle" font-size="18">👤</text>
    <rect x="88" y="516" width="80" height="4" rx="2" fill="#1e3040"/>
  </g>
  <rect x="88" y="7" width="80" height="24" rx="12" fill="#000"/>
</g>

<!-- Floating badge -->
<g transform="translate(492,528)" filter="url(#fsdrop)">
  <rect width="196" height="52" rx="26" fill="#0c1c2c" stroke="#1a3448" stroke-width="1"/>
  <circle cx="32" cy="26" r="10" fill="#22c55e"/>
  <text x="32" y="30" text-anchor="middle" font-size="12" fill="#fff" font-weight="700">✓</text>
  <text x="52" y="21" font-size="12" font-weight="700" fill="#e0eef4">Desk booked!</text>
  <text x="52" y="36" font-size="10" fill="#4a7a80">Desk 3F · Today · 9am</text>
</g>
</svg>