<svg viewBox="0 0 1200 700" xmlns="http://www.w3.org/2000/svg" style="font-family:system-ui,-apple-system,sans-serif">
<defs>
  <linearGradient id="ggbg" x1="0%" y1="0%" x2="100%" y2="100%">
    <stop offset="0%" stop-color="#060b18"/>
    <stop offset="60%" stop-color="#0a1020"/>
    <stop offset="100%" stop-color="#0d1428"/>
  </linearGradient>
  <linearGradient id="gghero" x1="0%" y1="0%" x2="100%" y2="100%">
    <stop offset="0%" stop-color="#f97316"/>
    <stop offset="100%" stop-color="#ea580c"/>
  </linearGradient>
  <linearGradient id="ggblue" x1="0%" y1="0%" x2="100%" y2="100%">
    <stop offset="0%" stop-color="#3b82f6"/>
    <stop offset="100%" stop-color="#2563eb"/>
  </linearGradient>
  <linearGradient id="gggreen" x1="0%" y1="0%" x2="100%" y2="100%">
    <stop offset="0%" stop-color="#22c55e"/>
    <stop offset="100%" stop-color="#16a34a"/>
  </linearGradient>
  <linearGradient id="ggscreen" x1="0%" y1="0%" x2="0%" y2="100%">
    <stop offset="0%" stop-color="#0a0e1a"/>
    <stop offset="100%" stop-color="#070c16"/>
  </linearGradient>
  <linearGradient id="ggprog1" x1="0%" y1="0%" x2="100%" y2="0%">
    <stop offset="0%" stop-color="#f97316"/>
    <stop offset="100%" stop-color="#fb923c"/>
  </linearGradient>
  <linearGradient id="ggprog2" x1="0%" y1="0%" x2="100%" y2="0%">
    <stop offset="0%" stop-color="#3b82f6"/>
    <stop offset="100%" stop-color="#60a5fa"/>
  </linearGradient>
  <linearGradient id="ggprog3" x1="0%" y1="0%" x2="100%" y2="0%">
    <stop offset="0%" stop-color="#22c55e"/>
    <stop offset="100%" stop-color="#4ade80"/>
  </linearGradient>
  <linearGradient id="ggprog4" x1="0%" y1="0%" x2="100%" y2="0%">
    <stop offset="0%" stop-color="#a855f7"/>
    <stop offset="100%" stop-color="#c084fc"/>
  </linearGradient>
  <radialGradient id="ggglow1" cx="50%" cy="50%" r="50%">
    <stop offset="0%" stop-color="#f97316" stop-opacity=".2"/>
    <stop offset="100%" stop-color="#f97316" stop-opacity="0"/>
  </radialGradient>
  <radialGradient id="ggglow2" cx="50%" cy="50%" r="50%">
    <stop offset="0%" stop-color="#3b82f6" stop-opacity=".15"/>
    <stop offset="100%" stop-color="#3b82f6" stop-opacity="0"/>
  </radialGradient>
  <clipPath id="ggclip"><rect width="240" height="490" rx="34"/></clipPath>
  <filter id="ggdrop"><feDropShadow dx="0" dy="24" stdDeviation="40" flood-color="#f97316" flood-opacity=".18"/></filter>
  <filter id="ggblur"><feGaussianBlur stdDeviation="50"/></filter>
  <filter id="ggblur2"><feGaussianBlur stdDeviation="25"/></filter>
</defs>

<!-- BG -->
<rect width="1200" height="700" fill="url(#ggbg)"/>

<!-- Subtle grid -->
<line x1="0" y1="140" x2="1200" y2="140" stroke="#ffffff" stroke-opacity=".025" stroke-width="1"/>
<line x1="0" y1="280" x2="1200" y2="280" stroke="#ffffff" stroke-opacity=".025" stroke-width="1"/>
<line x1="0" y1="420" x2="1200" y2="420" stroke="#ffffff" stroke-opacity=".025" stroke-width="1"/>
<line x1="0" y1="560" x2="1200" y2="560" stroke="#ffffff" stroke-opacity=".025" stroke-width="1"/>
<line x1="240" y1="0" x2="240" y2="700" stroke="#ffffff" stroke-opacity=".025" stroke-width="1"/>
<line x1="480" y1="0" x2="480" y2="700" stroke="#ffffff" stroke-opacity=".025" stroke-width="1"/>
<line x1="720" y1="0" x2="720" y2="700" stroke="#ffffff" stroke-opacity=".025" stroke-width="1"/>
<line x1="960" y1="0" x2="960" y2="700" stroke="#ffffff" stroke-opacity=".025" stroke-width="1"/>

<!-- Glow orbs -->
<ellipse cx="430" cy="350" rx="220" ry="200" fill="url(#ggglow1)" filter="url(#ggblur)"/>
<ellipse cx="820" cy="180" rx="180" ry="150" fill="url(#ggglow2)" filter="url(#ggblur)"/>

<!-- ─── LEFT TEXT PANEL ─── -->
<!-- Tags -->
<rect x="60" y="180" width="76" height="22" rx="11" fill="#f97316" fill-opacity=".15"/>
<text x="98" y="195" text-anchor="middle" font-size="9" font-weight="700" fill="#f97316" letter-spacing=".1em">EDTECH</text>
<rect x="146" y="180" width="58" height="22" rx="11" fill="#3b82f6" fill-opacity=".15"/>
<text x="175" y="195" text-anchor="middle" font-size="9" font-weight="700" fill="#60a5fa" letter-spacing=".1em">UPSC</text>
<rect x="214" y="180" width="36" height="22" rx="11" fill="#a855f7" fill-opacity=".15"/>
<text x="232" y="195" text-anchor="middle" font-size="9" font-weight="700" fill="#c084fc" letter-spacing=".1em">AI</text>

<!-- Title -->
<text x="60" y="310" font-size="96" font-weight="900" fill="#f1f5f9" letter-spacing="-.04em">Gyan</text>
<text x="60" y="400" font-size="96" font-weight="900" fill="#f97316" letter-spacing="-.04em">Gram</text>
<text x="62" y="434" font-size="14" fill="#64748b" letter-spacing=".06em">UPSC MASTERY PLATFORM</text>

<!-- Divider -->
<rect x="60" y="455" width="200" height="1" fill="#f97316" fill-opacity=".25"/>

<!-- Metrics -->
<text x="60" y="493" font-size="28" font-weight="800" fill="#f1f5f9">4.6★</text>
<text x="60" y="510" font-size="10" fill="#475569" letter-spacing=".05em">PLAY STORE</text>
<text x="160" y="493" font-size="28" font-weight="800" fill="#f1f5f9">847</text>
<text x="160" y="510" font-size="10" fill="#475569" letter-spacing=".05em">BETA USERS</text>
<text x="60" y="548" font-size="28" font-weight="800" fill="#f1f5f9">68%</text>
<text x="60" y="565" font-size="10" fill="#475569" letter-spacing=".05em">DAY-7 RETENTION</text>
<text x="160" y="548" font-size="28" font-weight="800" fill="#f1f5f9">24m</text>
<text x="160" y="565" font-size="10" fill="#475569" letter-spacing=".05em">AVG SESSION</text>

<!-- Case study label -->
<text x="60" y="620" font-size="11" fill="#1e293b" font-weight="600" letter-spacing=".14em">CASE STUDY · UI/UX DESIGN</text>

<!-- ─── MAIN PHONE ─── -->
<g transform="translate(390,78)" filter="url(#ggdrop)">
  <rect x="-2" y="-2" width="244" height="494" rx="36" fill="#1a2235"/>
  <rect width="240" height="490" rx="34" fill="#070c16"/>
  <g clip-path="url(#ggclip)">
    <rect width="240" height="490" fill="url(#ggscreen)"/>

    <!-- Status bar -->
    <rect width="240" height="36" fill="#080d1a"/>
    <text x="14" y="24" font-size="11" font-weight="600" fill="#e2e8f0">9:41</text>
    <rect x="86" y="6" width="68" height="22" rx="11" fill="#000"/>
    <text x="218" y="24" text-anchor="end" font-size="9" fill="#94a3b8">●●●</text>

    <!-- Top bar -->
    <rect x="0" y="36" width="240" height="44" fill="#0a0e1a"/>
    <circle cx="22" cy="58" r="13" fill="#f97316" fill-opacity=".2"/>
    <text x="22" y="63" text-anchor="middle" font-size="13" font-weight="800" fill="#f97316">G</text>
    <text x="44" y="63" font-size="13" font-weight="700" fill="#f1f5f9">GyanGram</text>
    <circle cx="218" cy="58" r="13" fill="#141929"/>
    <text x="218" y="63" text-anchor="middle" font-size="13">🔔</text>
    <line x1="0" y1="80" x2="240" y2="80" stroke="#1e293b" stroke-width="1"/>

    <!-- Greeting -->
    <text x="14" y="104" font-size="11" fill="#64748b">Good morning</text>
    <text x="14" y="122" font-size="15" font-weight="700" fill="#f1f5f9">Riya 👋</text>

    <!-- Streak card -->
    <rect x="14" y="132" width="212" height="48" rx="12" fill="#1a1a0a"/>
    <rect x="14" y="132" width="212" height="48" rx="12" fill="#f97316" fill-opacity=".08" stroke="#f97316" stroke-opacity=".2" stroke-width="1"/>
    <text x="28" y="152" font-size="19">🔥</text>
    <text x="52" y="151" font-size="12" font-weight="700" fill="#fb923c">47-day streak!</text>
    <text x="52" y="166" font-size="9" fill="#92400e">Keep it going — study today</text>
    <rect x="170" y="147" width="42" height="18" rx="9" fill="#f97316"/>
    <text x="191" y="160" text-anchor="middle" font-size="9" font-weight="700" fill="#fff">Day 47</text>

    <!-- Today's target -->
    <text x="14" y="204" font-size="10" font-weight="700" fill="#94a3b8" letter-spacing=".06em">TODAY'S TARGET</text>
    <!-- 5 circles: 3 filled, 2 empty -->
    <circle cx="24" cy="224" r="9" fill="#f97316"/>
    <text x="24" y="228" text-anchor="middle" font-size="9" fill="#fff">✓</text>
    <circle cx="46" cy="224" r="9" fill="#f97316"/>
    <text x="46" y="228" text-anchor="middle" font-size="9" fill="#fff">✓</text>
    <circle cx="68" cy="224" r="9" fill="#f97316"/>
    <text x="68" y="228" text-anchor="middle" font-size="9" fill="#fff">✓</text>
    <circle cx="90" cy="224" r="9" fill="none" stroke="#1e3a5f" stroke-width="2"/>
    <circle cx="112" cy="224" r="9" fill="none" stroke="#1e3a5f" stroke-width="2"/>
    <text x="136" y="228" font-size="10" fill="#64748b">3 of 5 done</text>

    <!-- Subject progress -->
    <text x="14" y="254" font-size="10" font-weight="700" fill="#94a3b8" letter-spacing=".06em">SUBJECT PROGRESS</text>

    <!-- History -->
    <text x="14" y="272" font-size="10" fill="#e2e8f0">History</text>
    <text x="226" y="272" text-anchor="end" font-size="10" fill="#f97316">65%</text>
    <rect x="14" y="276" width="212" height="5" rx="2.5" fill="#1e293b"/>
    <rect x="14" y="276" width="138" height="5" rx="2.5" fill="url(#ggprog1)"/>

    <!-- Polity -->
    <text x="14" y="294" font-size="10" fill="#e2e8f0">Polity</text>
    <text x="226" y="294" text-anchor="end" font-size="10" fill="#60a5fa">42%</text>
    <rect x="14" y="298" width="212" height="5" rx="2.5" fill="#1e293b"/>
    <rect x="14" y="298" width="89" height="5" rx="2.5" fill="url(#ggprog2)"/>

    <!-- Geography -->
    <text x="14" y="316" font-size="10" fill="#e2e8f0">Geography</text>
    <text x="226" y="316" text-anchor="end" font-size="10" fill="#4ade80">78%</text>
    <rect x="14" y="320" width="212" height="5" rx="2.5" fill="#1e293b"/>
    <rect x="14" y="320" width="165" height="5" rx="2.5" fill="url(#ggprog3)"/>

    <!-- Economy -->
    <text x="14" y="338" font-size="10" fill="#e2e8f0">Economy</text>
    <text x="226" y="338" text-anchor="end" font-size="10" fill="#c084fc">31%</text>
    <rect x="14" y="342" width="212" height="5" rx="2.5" fill="#1e293b"/>
    <rect x="14" y="342" width="66" height="5" rx="2.5" fill="url(#ggprog4)"/>

    <!-- Recommended -->
    <text x="14" y="368" font-size="10" font-weight="700" fill="#94a3b8" letter-spacing=".06em">RECOMMENDED NEXT</text>
    <rect x="14" y="376" width="212" height="52" rx="12" fill="#111827"/>
    <rect x="14" y="376" width="212" height="52" rx="12" fill="#3b82f6" fill-opacity=".06" stroke="#3b82f6" stroke-opacity=".15" stroke-width="1"/>
    <rect x="26" y="388" width="28" height="28" rx="8" fill="#3b82f6" fill-opacity=".15"/>
    <text x="40" y="406" text-anchor="middle" font-size="14">📜</text>
    <text x="62" y="393" font-size="11" font-weight="600" fill="#e2e8f0">Directive Principles</text>
    <text x="62" y="407" font-size="9" fill="#64748b">Polity · 12 min read</text>
    <text x="62" y="420" font-size="9" fill="#60a5fa">Weak area ↑</text>

    <!-- Bottom tab bar -->
    <rect x="0" y="442" width="240" height="48" fill="#080d1a"/>
    <line x1="0" y1="442" x2="240" y2="442" stroke="#1e293b" stroke-width="1"/>
    <!-- Home tab (active) -->
    <rect x="0" y="442" width="60" height="48" fill="#0f172a"/>
    <text x="30" y="462" text-anchor="middle" font-size="16">🏠</text>
    <text x="30" y="478" text-anchor="middle" font-size="8" fill="#f97316" font-weight="700">Home</text>
    <rect x="22" y="488" width="16" height="2" rx="1" fill="#f97316"/>
    <!-- Scroll tab -->
    <text x="90" y="462" text-anchor="middle" font-size="16">📚</text>
    <text x="90" y="478" text-anchor="middle" font-size="8" fill="#475569">Scroll</text>
    <!-- Learn tab -->
    <text x="150" y="462" text-anchor="middle" font-size="16">🎓</text>
    <text x="150" y="478" text-anchor="middle" font-size="8" fill="#475569">Learn</text>
    <!-- Strategy tab -->
    <text x="210" y="462" text-anchor="middle" font-size="16">⚡</text>
    <text x="210" y="478" text-anchor="middle" font-size="8" fill="#475569">Strategy</text>

    <!-- Home bar -->
    <rect x="80" y="487" width="80" height="3" rx="1.5" fill="#1e293b"/>
  </g>
  <!-- Notch -->
  <rect x="86" y="4" width="68" height="22" rx="11" fill="#000"/>
</g>

<!-- ─── SECOND PHONE (Scroll screen, tilted) ─── -->
<g transform="translate(700,130) rotate(6)" opacity=".75">
  <rect x="-2" y="-2" width="204" height="414" rx="30" fill="#1a2235"/>
  <rect width="200" height="410" rx="28" fill="#070c16"/>
  <clipPath id="ggclip2"><rect width="200" height="410" rx="28"/></clipPath>
  <g clip-path="url(#ggclip2)">
    <rect width="200" height="410" fill="#07090f"/>
    <!-- Status bar -->
    <rect width="200" height="30" fill="#050709"/>
    <text x="12" y="20" font-size="9" fill="#94a3b8">9:41</text>
    <!-- Card header -->
    <rect x="0" y="30" width="200" height="36" fill="#080c14"/>
    <text x="100" y="52" text-anchor="middle" font-size="11" font-weight="700" fill="#f1f5f9">Scroll</text>
    <line x1="0" y1="66" x2="200" y2="66" stroke="#1e293b" stroke-width="1"/>
    <!-- Topic pill -->
    <rect x="12" y="76" width="70" height="18" rx="9" fill="#f97316" fill-opacity=".15"/>
    <text x="47" y="89" text-anchor="middle" font-size="8" font-weight="700" fill="#f97316">POLITY</text>
    <rect x="90" y="76" width="98" height="18" rx="9" fill="#1e293b"/>
    <text x="139" y="89" text-anchor="middle" font-size="8" fill="#64748b">Card 3 of 24</text>
    <!-- Card content -->
    <rect x="12" y="104" width="176" height="210" rx="16" fill="#111827"/>
    <rect x="12" y="104" width="176" height="210" rx="16" fill="#f97316" fill-opacity=".04" stroke="#f97316" stroke-opacity=".12" stroke-width="1"/>
    <text x="100" y="132" text-anchor="middle" font-size="22">🏛️</text>
    <text x="100" y="156" text-anchor="middle" font-size="12" font-weight="700" fill="#f1f5f9">Directive Principles</text>
    <text x="100" y="172" text-anchor="middle" font-size="10" fill="#64748b">of State Policy</text>
    <line x1="32" y1="182" x2="168" y2="182" stroke="#1e293b" stroke-width="1"/>
    <text x="24" y="198" font-size="9" fill="#94a3b8" xml:space="preserve">• Non-justiciable guidelines</text>
    <text x="24" y="212" font-size="9" fill="#94a3b8" xml:space="preserve">• Part IV, Articles 36–51</text>
    <text x="24" y="226" font-size="9" fill="#94a3b8" xml:space="preserve">• Welfare state objectives</text>
    <text x="24" y="240" font-size="9" fill="#94a3b8" xml:space="preserve">• Distinguished from FRs</text>
    <rect x="24" y="256" width="80" height="20" rx="10" fill="#f97316"/>
    <text x="64" y="270" text-anchor="middle" font-size="9" font-weight="700" fill="#fff">I got it ✓</text>
    <rect x="112" y="256" width="64" height="20" rx="10" fill="#1e293b"/>
    <text x="144" y="270" text-anchor="middle" font-size="9" fill="#94a3b8">Review later</text>
    <!-- Swipe indicator -->
    <text x="100" y="328" text-anchor="middle" font-size="9" fill="#334155">← swipe to continue →</text>
    <text x="100" y="345" text-anchor="middle" font-size="10">⟵ ○ ⟶</text>
    <!-- Bottom nav hint -->
    <rect x="0" y="370" width="200" height="40" fill="#050709"/>
    <line x1="0" y1="370" x2="200" y2="370" stroke="#1e293b" stroke-width="1"/>
    <text x="25" y="390" text-anchor="middle" font-size="12">🏠</text>
    <text x="75" y="386" text-anchor="middle" font-size="12">📚</text>
    <rect x="55" y="368" width="40" height="2" fill="#f97316"/>
    <text x="125" y="390" text-anchor="middle" font-size="12">🎓</text>
    <text x="175" y="390" text-anchor="middle" font-size="12">⚡</text>
  </g>
</g>

<!-- AI badge floating -->
<rect x="726" y="426" width="130" height="34" rx="17" fill="#0a1020" stroke="#f97316" stroke-opacity=".4" stroke-width="1"/>
<text x="741" y="446" font-size="12">✦</text>
<text x="758" y="446" font-size="11" font-weight="600" fill="#f97316">AI-Powered Study</text>

</svg>
