<svg width="143" height="161" viewBox="0 0 143 161" fill="none" xmlns="http://www.w3.org/2000/svg">
<path d="M62.2056 80.889H36.4515L36.4516 44.6751C36.4516 29.7697 37.9374 28.9299 48.3381 28.4051L125.589 28.4051C130.046 28.4051 138.228 26.8306 138.961 17.1211C139.674 7.67396 130.377 4.00003 125.589 4C116.674 4.08747 55.8167 4.47231 47.0999 4.26238C38.3831 4.05244 30.5083 4.44761 24.3174 5.8369C7.47823 9.61574 3.76371 24.2063 4.01134 31.0292V134.685C4.01134 149.118 6.22872 155.302 21.8297 156.204C29.5064 156.647 36.1926 152.267 36.4515 142.295V134.685C36.4515 134.685 36.0019 124.105 36.6992 121.302C37.6784 117.365 41.2392 115.616 43.3853 115.528H61.7217C65.1886 115.703 74.576 111.592 74.576 99.2584C74.576 85.4097 66.1678 80.889 62.2056 80.889Z" fill="#00BFA6"></path>
<path fill-rule="evenodd" clip-rule="evenodd" d="M77.8631 44.9377C73.6965 45.9731 66.9496 50.5196 66.9496 60.9758C66.9496 74.8245 75.3579 79.3452 79.32 79.3452H105.074L105.074 115.559C105.074 130.465 103.588 131.304 93.1876 131.829H56.5376C52.0801 131.829 43.8983 133.404 43.1653 143.113C42.4521 152.56 51.7499 156.234 56.5376 156.234C58.724 156.213 61.5927 156.173 64.806 156.129C74.6945 155.994 87.8469 155.813 94.4258 155.972C103.143 156.182 111.017 155.787 117.208 154.397C134.047 150.618 137.762 136.028 137.514 129.205L137.514 44.9377H77.8631Z" fill="#3A5AFA"></path>
</svg>